/* XPM */
static char *_1e5757024ad4728f836c8063dce27949ZDBLQPW45rEmUey[] = {
/* columns rows colors chars-per-pixel */
"384 48 13 1 ",
"  c None",
". c black",
"X c #131313",
"o c #1B1B1B",
"O c #272727",
"+ c #571C27",
"@ c #891E2B",
"# c #8A4836",
"$ c #F5555D",
"% c #B4B4B4",
"& c #F6CA9F",
"* c #C7CFDD",
"= c white",
/* pixels */
"                                                                                                                                                                                                                                                                                                                                                                                                ",
"                                                                                                                                                                                                                                                                                                                                                                                                ",
"                                                                                                                                                                                                                                                                                                                                                                                                ",
"                                                                                                                                                                                                                                                                                                                                                                                                ",
"                                                                                                                                                                                                                                                                                                                                                                                                ",
"                                                                                                                                                                                                                                                                                                                                                                                                ",
"                                                                                                                                                                                                                                                                                                                                                                                                ",
"                                   #=                                                                                                                                                                                              #=                                                                                                                                                           ",
"                                   #==                                                                                                                                             #=                                              #==                                             #=                                                                                              #=           ",
"                                  ##*==                                            #=                                              #=                                              #==                                            ##*==                                            #==                                             #=                                              #==          ",
"                       ++++@@@@   #***=                                            #==                                             #==                                 ++++@@@@   ##*==                                ++++@@@@   #***=                                           ##*==                                            #==                                 ++++@@@@   ##*==         ",
"                     ++++@@@@@@@ ##***=                                ++++@@@@   ##*==                                           ##*==                              ++++@@@@@@@  #***=                              ++++@@@@@@@ ##***=                                ++++@@@@   #***=                                           ##*==                              ++++@@@@@@@  #***=         ",
"                    +++@@@@@@@@@@#****==                             ++++@@@@@@@  #***=                              ++++@@@@@@@  #***=                             +++@@@@@@@@@@##***=                             +++@@@@@@@@@@#****==                             ++++@@@@@@@ ##***=                              ++++@@@@@@@  #***=                             +++@@@@@@@@@@##***=         ",
"                   +++@@@@.....@##*****=                            +++@@@@@@@@@@##***=                             +++@@@@@@@@@@##***=                            +++@@@@.....@@#****==                           +++@@@@.....@##*****=                            +++@@@@@@@@@@#****==                            +++@@@@@@@@@@##***=                            +++@@@@.....@@#****==        ",
"                  +++@@@@.......#@*****=                           +++@@@@.....@@#****==                           +++@@@@@@@@@@@#****==                          +++@@@@.......##*****=                          +++@@@@.......#@*****=                           +++@@@@.....@##*****=                           +++@@@@@@@@@@@#****==                          +++@@@@.......##*****=        ",
"                  +++@@@.......##@ ****==                         +++@@@@.......##*****=                          +++@@@@.......##*****=                          +++@@@........#@*****=                          +++@@@.......##@ ****==                         +++@@@@.......#@*****=                          +++@@@@......@##*****=                          +++@@@........#@*****=        ",
"                 +++@@@...XXXXX#.@  ****=                         +++@@@........#@*****=                          +++@@@........#@*****=                         +++@@@...XXXXX##@ ****==                        +++@@@...XXXXX#.@  ****=                         +++@@@.......##@ ****==                         +++@@@........#@*****=                         +++@@@...XXXXX##@ ****==       ",
"                 +++@@@..XX$$X##$@   ***=                        +++@@@...XXXXX##@ ****==                        +++@@@.....XXX##@ ****==                        +++@@@..XX$$XX#$@  ****=                        +++@@@..XX$$X##$@   ***=                        +++@@@...XXXXX#.@  ****=                        +++@@@@...XXXX##@ ****==                        +++@@@..XX$$XX#$@  ****=       ",
"                ++++@@@..XX$$X#X$@   ***=                        +++@@@..XX$$XX#$@  ****=                        +++@@@...X$$XX#$@  ****=                       ++++@@@..XX$$X##$@   ***=                       ++++@@@..XX$$X#X$@   ***=                        +++@@@..XX$$X##$@   ***=                        +++@@@...X$$XX#$@  ****=                       ++++@@@..XX$$X##$@   ***=       ",
"                ++++@@@.XXXXX##XX@    **==                      ++++@@@..XX$$X##$@   ***=                       ++++@@@..XX$$X##$@   ***=                       ++++@@@.XXXXXX#XX@   ***=                       ++++@@@.XXXXX##XX@    **==                      ++++@@@..XX$$X#X$@   ***=                       ++++@@@..XX$$X##$@   ***=                       ++++@@@.XXXXXX#XX@   ***=       ",
"               ++++++@@@XXXXX#XXX@    ***=                      ++++@@@.XXXXXX#XX@   ***=                       ++++@@@.XXXXXX#XX@   ***=                      ++++++@@@XXXXX##XX@    **==                     ++++++@@@XXXXX#XXX@    ***=                      ++++@@@.XXXXX##XX@    **==                      ++++@@@.XXXXXX#XX@   ***=                      ++++++@@@XXXXX##XX@    **==      ",
"               ++++++@@@XXXX##XX@@    ***=                     ++++++@@@XXXXX##XX@    **==                     ++++++@@@XXXXX##XX@    **==                     ++++++@@@XXXXX#XX@@    ***=                     ++++++@@@XXXX##XX@@    ***=                     ++++++@@@XXXXX#XXX@    ***=                     ++++++@@@XXXXX##XX@    **==                     ++++++@@@XXXXX#XX@@    ***=      ",
"                ++++++@@@XXX#XX+@      **=                     ++++++@@@XXXXX#XX@@    ***=                     ++++++@@@XXXXX#XX@@    ***=                      ++++++@@@XXX##X+@     ***=                      ++++++@@@XXX#XX+@      **=                     ++++++@@@XXXX##XX@@    ***=                     ++++++@@@XXXXX#XX@@    ***=                      ++++++@@@XXX##X+@     ***=      ",
"                  +++++@@@@##@++       **=                      ++++++@@@XXX##X+@     ***=                      ++++++@@@XXX##X+@     ***=                        +++++@@@@@#@++       **=                        +++++@@@@##@++       **=                      ++++++@@@XXX#XX+@      **=                      ++++++@@@XXX##X+@     ***=                        +++++@@@@@#@++       **=      ",
"                    ++++@++#+++         *=                        +++++@@@@@#@++       **=                        +++++@@@@@#@++       **=                          ++++@++##++        **=                          ++++@++#+++         *=                        +++++@@@@##@++       **=                        +++++@@@@@#@++       **=                          ++++@++##++        **=      ",
"                     ++@@@##+           *=                          ++++@++##++        **=                          ++++@++##++        **=                           ++@@@+#+           *=                           ++@@@##+           *=                          ++++@++#+++         *=                          ++++@++##++        **=                           ++@@@+#+           *=      ",
"                     +@@@@#@++          *=                           +@@@@+#++          *=                           ++@@@+#++          *=                           +@@@@##++          *=                           +@@@@#+++          *=                           ++@@@##++          *=                          +++@@@+#++          *=                           +@@@@##++          *=      ",
"                    +++@@##+@+          *=                          +++@@+##@+          *=                          +++@@+##@+          *=                          +++@@+#+@+          *=                          +++@@##+@+          *=                          +++@@+#+@+          *=                         ++++@@+##@+          *=                          +++@@+#+@+          *=      ",
"                   ++++++#o+@@@          =                         +++++++#+@@@         *=                         +++++++#+@@@         *=                         ++++++##+@@@         *=                         ++++++#o+@@@          =                         ++++++##+@@@         *=                       +++++++++#+@@@         *=                         ++++++##+@@@         *=      ",
"                  +++@@@&&o+@@@          =                        +++@@@@##+@@@         *=                        +++@@@@##+@@@         *=                        +++@@@@#o+@@@          =                        +++@@@&&o+@@@          =                        +++@@@@#o+@@@          =                     ++++@@@@@@##+@@@         *=                        +++@@@@#o+@@@          =      ",
"                 +++@@@@&&o@@@@          =                       +++@@@@@#o+@@@          =                       +++@@@@@#o+@@@          =                       +++@@@@&&o@@@@          =                       +++@@@@&&o@@@@          =                       +++@@@@&&o@@@@          =                   +++++@@@@@@@#o@@@@          =                       +++@@@@&&o@@@@          =      ",
"                 +++@@@#&&o@@@@          =                       +++@@@@&&o+@@@          =                       +++@@@@&&o@@@@+         =                       +++@@@@&&o@@@@          =                       +++@@@#&&o@@@@          =                      ++++@@@@&&o@@@@          =                   ++++@@@@@@@&&o@@@@          =                       +++@@@@&&o@@@@          =      ",
"                +++@@@@#ooo@@@@                                 +++@@@@@&&o@@@@          =                      +++@@@@@&&o@@@@+         =                      +++@@@@#&&o@@@@          =                      +++@@@@#ooo@@@@                               +++++@@@@#&&o@@@@          =                   +++@@@@@@@o&&o@@@@          =                      +++@@@@#&&o@@@@          =      ",
"               +++@@@@##ooo@@@@+                               +++@@@@@#&&o@@@@+         =                     +++@@@@@#&&o@@@@+         =                     +++@@@@@#ooo@@@@+                               +++@@@@##ooo@@@@+                             +++++@@@@o#ooo@@@@+                              ++@@@@@@o#&&o@@@@+         =                     +++@@@@@#ooo@@@@+                ",
"              ++++@@@@#oooo@@@++                              ++++@@@@@#oo@@@@++                              ++++@@@@@#oo@@@@++                              ++++@@@@##ooo@@@++                              ++++@@@@#oooo@@@++                             +++++@@@@##ooo@@@++                               ++@@@ooo#ooo@@@++                              ++++@@@@##ooo@@@++                ",
"              ++++@@@##ooo@@@@++                              ++++@@@@##oo@@@@++                              ++++@@@@##oo@@@@++                              ++++@@@@#ooo@@@@++                              ++++@@@##ooo@@@@++                              ++++@@@o#ooo@@@@++                                +++ooo##oo@@@@++                              ++++@@@@#ooo@@@@++                ",
"                ++++@#oooo@+++++                                ++++@O#oo@@++++                                 ++++@O#o@@@++++                                 ++++@##ooo@+++++                                ++++@#oooo@+++++                                ++++o##ooo@+++++                                 + ooo#ooo@+++++                                ++++@##ooo@+++++                ",
"                 ++++#oooo+++++                                  ++++##oo+++++                                   ++++##o@+++++                                   ++++#oooo+++++                                  ++++#oooo+++++                                   +oo#oooo+++++                                   %%%##ooo+++++                                  ++++#oooo+++++                 ",
"                   %%%    %%%                                      %%#   %%%%                                      %%#   %%%%                                      %%#   %%%%                                      %%%    %%%                                     %%%#    %%%                                     %%%#    %%%                                     %%%#    %%%                   ",
"                   %%     %%                                       %%#   %%%                                       %%#                                             %%    %%%                                       %%     %%                                      %%%     %%                                         #    %%                                      %%%     %%                    ",
"                                                                                                                                                                                                                                                                                                                                                                                                ",
"                                                                                                                                                                                                                                                                                                                                                                                                ",
"                                                                                                                                                                                                                                                                                                                                                                                                ",
"                                                                                                                                                                                                                                                                                                                                                                                                ",
"                                                                                                                                                                                                                                                                                                                                                                                                ",
"                                                                                                                                                                                                                                                                                                                                                                                                ",
"                                                                                                                                                                                                                                                                                                                                                                                                ",
"                                                                                                                                                                                                                                                                                                                                                                                                "
};
