/* XPM */
static char *d8c244d351944c4fb709af72e01377adnLFcAud1FuD0NtJ9[] = {
/* columns rows colors chars-per-pixel */
"240 48 14 1 ",
"  c None",
". c black",
"X c #131313",
"o c #1B1B1B",
"O c #272727",
"+ c #571C27",
"@ c #891E2B",
"# c #8A4836",
"$ c #F5555D",
"% c gray52",
"& c #B4B4B4",
"* c #F6CA9F",
"= c #C7CFDD",
"- c white",
/* pixels */
"                                                                                                                                                                                                                                                ",
"                                                                                                                                                                                                                                                ",
"                                                                                                                                                                                                                                                ",
"                                                                                                                                                                                                                                                ",
"                                                                                                                                                                                                                                                ",
"                                                                                                                                                                                                                                                ",
"                                                                                                                                                                                                                                                ",
"                                                                                   #-                                              #-                                              #-                                                           ",
"                                   #-                                              #--                                             #--                                             #--                                             #-           ",
"                                   #--                                            ##=--                                           ##=--                                           ##=--                                            #--          ",
"                       ++++@@@@   ##=--                                ++++@@@@   #===-                                +++++@@@   #===-                                +++++@@@   #===-                                ++++@@@@   ##=--         ",
"                     ++++@@@@@@@  #===-                              ++++@@@@@@@ ##===-                              ++++@@@@@@@ ##===-                              ++++@@@@@@@ ##===-                              ++++@@@@@@@  #===-         ",
"                    +++@@@@@@@@@@##===-                             +++@@@@@@@@@@#====--                            +++@@@@@@@@@@#====--                            +++@@@@@@@@@@#====--                            +++@@@@@@@@@@##===-         ",
"                   +++@@@@.....@@#====--                           +++@@@@.....@##=====-                           +++@@@@@....@##=====-                           +++@@@@@....@##=====-                           +++@@@@.....@@#====--        ",
"                  +++@@@@.......##=====-                          +++@@@@.......#@=====-                          +++@@@@.......#@=====-                          +++@@@@.......#@=====-                          +++@@@@.......##=====-        ",
"                  +++@@@........#@=====-                          +++@@@.......##@ ====--                        ++++@@@.......##@ ====--                        ++++@@@.......##@ ====--                         +++@@@........#@=====-        ",
"                 +++@@@...XXXXX##@ ====--                        +++@@@...XXXXX#.@  ====-                        +++@@@...XXXXX#.@  ====-                        +++@@@...XXXXX#.@  ====-                        +++@@@...XXXXX##@ ====--       ",
"                 +++@@@..XX$$XX#$@  ====-                        +++@@@..XX$$X##$@   ===-                       ++++@@@..XX$$X##$@   ===-                       ++++@@@..XX$$X##$@   ===-                        +++@@@..XX$$XX#$@  ====-       ",
"                ++++@@@..XX$$X##$@   ===-                       ++++@@@..XX$$X#$$@   ===-                      +++++@@@..XX$$X#$$@   ===-                       ++++@@@..XX$$X#$$@   ===-                       ++++@@@..XX$$X##$@   ===-       ",
"                ++++@@@.XXXXXX#XX@   ===-                       ++++@@@.XXXXX##XX@    ==--                    ++++++@@@.XXXXX##XX@    ==--                     +++++@@@.XXXXX##XX@    ==--                      ++++@@@.XXXXXX#XX@   ===-       ",
"               ++++++@@@XXXXX##XX@    ==--                     ++++++@@@XXXXX#XXX@    ===-                    +++++++@@@XXXXX#XXX@    ===-                     ++++++@@@XXXXX#XXX@    ===-                     ++++++@@@XXXXX##XX@    ==--      ",
"               ++++++@@@XXXXX#XX@@    ===-                     ++++++@@@XXXX##XX@@    ===-                     ++++++@@@XXXX##XX@@    ===-                     ++++++@@@XXXX##XX@@    ===-                     ++++++@@@XXXXX#XX@@    ===-      ",
"                ++++++@@@XXX##X+@     ===-                      ++++++@@@XXX#XX+@      ==-                       +++++@@@XXX#XX+@      ==-                       +++++@@@XXX#XX+@      ==-                      ++++++@@@XXX##X+@     ===-      ",
"                  +++++@@@@@#@++       ==-                        +++++@@@@##@++       ==-                         ++++@@@@##@++       ==-                         ++++@@@@##@++       ==-                        +++++@@@@@#@++       ==-      ",
"                    ++++@++##++        ==-                          ++++@++#+++         =-                           +++@++#+++         =-                           +++@++#+++         =-                          ++++@++##++        ==-      ",
"                     ++@@@+#+           =-                           ++@@@##+           =-                           ++@@@##+           =-                           ++@@@##+           =-                           ++@@@+#+           =-      ",
"                     +@@@@##++          =-                           +@@@@#@++          =-                           +@@@@#@++          =-                           +@@@@#@++          =-                           +@@@@##++          =-      ",
"                    +++@@+#+@+          =-                          +++@@##+@+          =-                          +++@@##+@+          =-                         ++++@@##+@+          =-                          +++@@+#+@+          =-      ",
"                   ++++++##+@@@         =-                         ++++++#o+@@@          -                        +++++++#o+@@@          -                        +++++++#o+@@@          -                        +++++++##+@@@         =-      ",
"                  +++@@@@#o+@@@          -                        +++@@@**o+@@@          -                       ++++@@@**o+@@@          -                      +++++@@@**o+@@@          -                       ++++@@@@#o+@@@          -      ",
"                 +++@@@@**o@@@@          -                       +++@@@@**o@@@@          -                      ++++@@@@**o@@@@          -                    ++++++@@@@**o@@@@          -                      ++++@@@@**o@@@@          -      ",
"                 +++@@@@**o@@@@          -                      +++@@@@#**o@@@@          -                    +++++@@@@#**o@@@@          -                   ++++++@@@@#**o@@@@          -                    +++++@@@@@**o@@@@          -      ",
"                +++@@@@#**o@@@@          -                     +++@@@@@#ooo@@@@                              +++++@@@@@#ooo@@@@+                             +++++@@@@o#ooo@@@@+                             +++++@@@@@#**o@@@@          -      ",
"               +++@@@@@#ooo@@@@+                              +++@@@@@##ooo@@@@+                             ++++@@@@@##ooo@@@++                             ++++@@@@o##ooo@@@++                             ++++@@@@@o#ooo@@@@+                ",
"              ++++@@@@##ooo@@@++                              +++@@@@@#oooo@@@++                              +++@@@@o#oooo@@@++                              +++@@@@o#oooo@@@++                              +++@@@@o##ooo@@@++                ",
"              ++++@@@@#ooo@@@@++                               +++@@@##ooo@@@@++                               +++@@O##ooo@@@+++                               ++++OO##ooo@@@+++                               +++@@OO#ooo@@@@++                ",
"                ++++@##ooo@+++++                                ++++@#oooo@+++++                                 ++OO#oooo@++++                                 ++ OO#oooo@++++                                  ++OO##ooo@+++++                ",
"                 ++++#oooo+++++                                   ++%#oooo+++++                                    %%#oooo++++                                     %%#oooo++++                                     %%#oooo+++++                 ",
"                   &&#    &&&                                      &&&    &&&                                      &&&    &&&                                      &&&    &&&                                      &&#    &&&                   ",
"                   &&     &&                                       &&     &&                                       &&     &&                                       &&     &&                                       &&     &&                    ",
"                                                                                                                                                                                                                                                ",
"                                                                                                                                                                                                                                                ",
"                                                                                                                                                                                                                                                ",
"                                                                                                                                                                                                                                                ",
"                                                                                                                                                                                                                                                ",
"                                                                                                                                                                                                                                                ",
"                                                                                                                                                                                                                                                ",
"                                                                                                                                                                                                                                                "
};
