/* XPM */
static char *cee238b473794ae5e1495931542d54a7oQhVATgjAqAMQJKh[] = {
/* columns rows colors chars-per-pixel */
"384 48 6 1 ",
"  c None",
". c black",
"X c #131313",
"o c #571C27",
"O c #891E2B",
"+ c #B4B4B4",
/* pixels */
"                                                                                                                                                                                                                                                                                                                                                                                                ",
"                                                                                                                                                                                                                                                                                                                                                                                                ",
"                                                                                                                                                                                                                                                                                                                                                                                                ",
"                                                                                                                                                                                                                                                                                                                                                                                                ",
"                                                                                                                                                                                                                                                                                                                                                                                                ",
"                                                                                                                                                                                                                                                                                                                                                                                                ",
"                                                                                                                                                                                                                                                                                                                                                                                                ",
"                                                                                                                                                                                                                                                                                                                                                                                                ",
"                                                                                                                                                                                                                                                                                                                                                                                                ",
"                      ooOOOOOO                                                                                                                                                                                        ooOOOOOO                                                                                                                                                                  ",
"                    oooOOOOOOOO                                                                                                                                       ooOOOOOO                                      oooOOOOOOOO                                                                                                                                       ooOOOOOO                  ",
"                   oooOOOOOOOOOO                                      ooOOOOOO                                                                                      oooOOOOOOOO                                    oooOOOOOOOOOO                                                                                                                                    oooOOOOOOOO                 ",
"                  oooOOOO.....OO                                    oooOOOOOOOO                                      ooOOOOOOOO                                    oooOOOOOOOOOO                                  oooOOOO.....OO                                    oooOOOOOOOO                                      ooOOOOOOOO                                    oooOOOOOOOOOO                ",
"                 ooooOOO.......OO                                  oooOOOOOOOOOO                                   oooOOOOOOOOOO                                  oooOOOO.....OO                                 ooooOOO.......OO                                  oooOOOOOOOOOO                                   oooOOOOOOOOOO                                  oooOOOO.....OO                ",
"                 oooOOO.........O                                 oooOOOOOOOOOOO                                  oooOOOOOOOOOOO                                 ooooOOO.......OO                                oooOOO.........O                                 oooOOOOOOOOOOO                                  oooOOOOOOOOOOO                                 ooooOOO.......OO               ",
"                ooooOOO..XXXXXX.O                                ooooOOO.......OO                                ooooOOOO.....OOO                                oooOOO.........O                               ooooOOO..XXXXXX.O                                ooooOOOO......OO                                ooooOOOOOOOOOOOO                                oooOOO.........O               ",
"                oooOOO..XXXXXXXXO                                oooOOO.........O                               ooooOOO.........O                               ooooOOO..XXXXXX.O                               oooOOO..XXXXXXXXO                                oooOOO.........O                               ooooOOOO.......OO                               ooooOOO..XXXXXX.O               ",
"               ooooOOO..XXXXXXXXO                               ooooOO..........O                              oooooOO..........O                               oooOOO..XXXXXXXXO                              ooooOOO..XXXXXXXXO                               ooooOOO.........O                              oooooOOO.........O                               oooOOO..XXXXXXXXO               ",
"               ooooOOO.XXXXXXXXXO                              ooooOOO..XXXXXXX.O                              ooooOO....XXXXX..O                              ooooOOO..XXXXXXXXO                              ooooOOO.XXXXXXXXXO                              ooooOOO...XXXXXX.O                             oooooOOO...XXXXX..O                              ooooOOO..XXXXXXXXO               ",
"              oooooOOOXXXXXXXXXXO                              ooooOOO..XXXXXXXXO                             oooooOO...XXXXXXX.O                              ooooOOO.XXXXXXXXXO                             oooooOOOXXXXXXXXXXO                             oooooOOO..XXXXXXXXO                            ooooooOO...XXXXXXX.O                              ooooOOO.XXXXXXXXXO               ",
"              ooooooOOOXXXXXXXXXO                             oooooOOO.XXXXXXXXXO                            ooooooOO..XXXXXXXXXO                             oooooOOOXXXXXXXXXXO                             ooooooOOOXXXXXXXXXO                            ooooooOOO.XXXXXXXXXO                            ooooooOO..XXXXXXXXXO                             oooooOOOXXXXXXXXXXO               ",
"               oooooOOOXXXXXXXXOO                            ooooooOOOXXXXXXXXXXO                            ooooooOOXXXXXXXXXXXO                             ooooooOOOXXXXXXXXXO                              oooooOOOXXXXXXXXOO                            ooooooOOOXXXXXXXXXXO                            ooooooOO.XXXXXXXXXXO                             ooooooOOOXXXXXXXXXO               ",
"                oooooOOOXXXXXXoO                              ooooooOOXXXXXXXXXXO                             ooooooOOXXXXXXXXXXO                              oooooOOOXXXXXXXXOO                               oooooOOOXXXXXXoO                              ooooooOOOXXXXXXXXXO                             ooooooOOXXXXXXXXXXO                              oooooOOOXXXXXXXXOO               ",
"                 oooooOOOOXXXOO                                oooooOOOXXXXXXXXOO                              oooooOOOXXXXXXXXOO                               oooooOOOXXXXXXoO                                 oooooOOOOXXXOO                                oooooOOOXXXXXXXXOO                              oooooOOXXXXXXXXXOO                               oooooOOOXXXXXXoO                ",
"                   ooooOoooOoo                                   ooooOOOXXXXXXoO                                oooooOOOXXXXXXoO                                 oooooOOOOXXXOO                                    ooooOoooOoo                                   ooooOOOXXXXXXoO                                oooooOOOXXXXXXoO                                 oooooOOOOXXXOO                 ",
"                    ooOOOOOO                                      ooooOOOOXXXOO                                  oooooOOOOXXXOO                                    ooooOoooOoo                                      ooOOOOOO                                      ooooOOOOXXXOO                                   ooooOOOOXXXOO                                    ooooOoooOoo                  ",
"                   ooOOOOOOOO                                      ooooOoooOoo                                     ooooOoooOoo                                     ooOOOOOOOO                                      ooOOOOOOOO                                      ooooOoooOoo                                     ooooOoooOoo                                     ooOOOOOOOO                   ",
"                  ooOOOOOOOOOO                                    ooOOOOOOOOO                                     oooOOOOOOOO                                      oOOOOOOOOOO                                    ooOOOOOOOOOO                                    ooOOOOOOOOO                                     oooOOOOOOOO                                      oOOOOOOOOOO                  ",
"                  oooOOOOOOOOO                                    ooooOOOOOOOO                                    oooooOOOOOOO                                    ooooOOOOOOOO                                    oooOOOOOOOOO                                    oooooOOOOOOO                                    oooooooooOOO                                    ooooOOOOOOOO                  ",
"                 ooooooOOOOOOOO                                  ooooooooooOOOO                                  ooooooooooOOOO                                   oooooooooOOOO                                  ooooooOOOOOOOO                                  ooooooooooOOOO                                  ooooooOOOOOOOO                                   ooooooOOOOOOO                 ",
"                 ooooooooooOOOO                                  ooooooOOOOOOOO                                  oooooOOOOOOOOO                                  ooooOOOOOOOOOO                                  ooooooooooOOOO                                  ooooOOOOOOOOOO                                  ooooOOOOOOOOOOo                                 ooooooooooOOOO                 ",
"                 oooOOOOOOOOOOOo                                 oooOOOOOOOOOOOo                                 oooOOOOOOOOOOOo                                 oooOOOOOOOOOOO                                  oooOOOOOOOOOOOo                                 oooOOOOOOOOOOOo                                 oooOOOOOOOOOOOo                                 oooOOOOOOOOOOOo                ",
"                 ooOOOOOOOOOOOOo                                 ooOOOOOOOOOOOOo                                 ooOOOOOOOOOOOOo                                 ooOOOOOOOOOOOOo                                 ooOOOOOOOOOOOOo                                 ooOOOOOOOOOOOOo                                 ooOOOOOOOOOOOOo                                 ooOOOOOOOOOOOOo                ",
"                 ooOOOOOOOOOOOOo                                 ooOOOOOOOOOOOOo                                 oooOOOOOOOOOOOo                                 ooOOOOOOOOOOOOo                                 ooOOOOOOOOOOOOo                                 ooOOOOOOOOOOOOo                                 ooOOOOOOOOOOOoo                                 ooOOOOOOOOOOOOo                ",
"                ooooOOOOOOOOOOoo                                ooooOOOOOOOOOOoo                                oooooOOOOOOOOOoo                                ooooOOOOOOOOOOoo                                ooooOOOOOOOOOOoo                                ooooOOOOOOOOOOoo                                ooooOOOOOOOOOOoo                                ooooOOOOOOOOOOoo                ",
"                oooooOOOOOOOOOoo                                oooooOOOOOOOOOoo                               ooooooOOOOOOOOOoo                                oooooOOOOOOOOOoo                                oooooOOOOOOOOOoo                                oooooOOOOOOOOOo                                 oooooOOOooOOOoo                                 oooooOOOOOOOOooo                ",
"                ooooooooOOOOooo                                 ooooooooOOOOooo                               ooooooooooOOOOooo                                 ooooooooOOOOooo                                 ooooooooOOOOooo                                 ooooooooooooooo                                 oooooooooooooo                                  ooooooooooooooo                 ",
"               ooooooooooooooo                                 ooooooooooooooo                                oooooooooooooooo                                 ooooooooooooooo                                 ooooooooooooooo                                 ooooooooooooooo                                 ooooooooooooooo                                 ooooooooooooooo                  ",
"               ooo +++    +++                                  ooo++++    +++                                     ++++    +++                                  ooo++++    +++                                  ooo +++    +++                                  ooo +++   ++++                                  ooo +++   ++++                                  ooo +++   ++++                   ",
"                   ++     ++                                      +++     ++                                              ++                                      +++     ++                                       ++     ++                                       ++    +++                                       ++                                              ++    +++                    ",
"                                                                                                                                                                                                                                                                                                                                                                                                ",
"                                                                                                                                                                                                                                                                                                                                                                                                ",
"                                                                                                                                                                                                                                                                                                                                                                                                ",
"                                                                                                                                                                                                                                                                                                                                                                                                ",
"                                                                                                                                                                                                                                                                                                                                                                                                ",
"                                                                                                                                                                                                                                                                                                                                                                                                ",
"                                                                                                                                                                                                                                                                                                                                                                                                ",
"                                                                                                                                                                                                                                                                                                                                                                                                "
};
