/* XPM */
static char *_78daebdce8a47dca8577aacdaea888dEhM8w1sxUy4oBo5V[] = {
/* columns rows colors chars-per-pixel */
"240 48 6 1 ",
"  c None",
". c black",
"X c #131313",
"o c #571C27",
"O c #891E2B",
"+ c #B4B4B4",
/* pixels */
"                                                                                                                                                                                                                                                ",
"                                                                                                                                                                                                                                                ",
"                                                                                                                                                                                                                                                ",
"                                                                                                                                                                                                                                                ",
"                                                                                                                                                                                                                                                ",
"                                                                                                                                                                                                                                                ",
"                                                                                                                                                                                                                                                ",
"                                                                                                                                                                                                                                                ",
"                                                                                                                                                                                                                                                ",
"                      ooOOOOOO                                         oOOOOOO                                                                                                                                        ooOOOOOO                  ",
"                    oooOOOOOOOO                                      ooOOOOOOOO                                       oOOOOOOOO                                      ooOOOOOOOO                                     oooOOOOOOOO                 ",
"                   oooOOOOOOOOOO                                   oooOOOOOOOOOO                                    ooOOOOOOOOOO                                   oooOOOOOOOOOO                                   oooOOOOOOOOOO                ",
"                  oooOOOO.....OO                                  oooOOOO.....OO                                   ooOOOOOOOOOOO                                  oooOOOO.....OO                                  oooOOOO.....OO                ",
"                 ooooOOO.......OO                                ooooOOO.......OO                                 oooOOOO.....OOO                                ooooOOO.......OO                                ooooOOO.......OO               ",
"                 oooOOO.........O                                oooOOO.........O                                oooOOO........OO                                oooOOO.........O                                oooOOO.........O               ",
"                ooooOOO..XXXXXX.O                               ooooOOO...XXXX..O                               ooooOOO.........O                              oooooOOO...XXX...O                               ooooOOO..XXXXXX.O               ",
"                oooOOO..XXXXXXXXO                               oooOOO..XXXXXXX.O                              ooooOOO...XXXXX..O                             oooooOOO...XXXXXX.O                               oooOOO..XXXXXXXXO               ",
"               ooooOOO..XXXXXXXXO                              ooooOOO..XXXXXXXXO                              ooooOOO..XXXXXXX.O                             oooooOOO..XXXXXXXXO                              ooooOOO..XXXXXXXXO               ",
"               ooooOOO.XXXXXXXXXO                              ooooOOO.XXXXXXXXXO                             oooooOOO..XXXXXXXXO                             oooooOOO.XXXXXXXXXO                              ooooOOO.XXXXXXXXXO               ",
"              oooooOOOXXXXXXXXXXO                             oooooOOOOXXXXXXXXXO                             oooooOOOOXXXXXXXXXO                             oooooOOOOXXXXXXXXXO                             oooooOOOOXXXXXXXXXO               ",
"              ooooooOOOXXXXXXXXXO                             ooooooOOOXXXXXXXXXO                             ooooooOOOXXXXXXXXO                               oooooOOOXXXXXXXXXO                             ooooooOOOXXXXXXXXXO               ",
"               oooooOOOXXXXXXXXOO                              oooooOOOOXXXXXXXOO                              oooooOOOOXXXXXXXO                                ooooOOOOXXXXXXXOO                              oooooOOOXXXXXXXXoO               ",
"                oooooOOOXXXXXXoO                                oooooOOOXXXXXXoO                                oooooOOOXXXXXXO                                  ooooOOOOXXXXXoO                                oooooOOOXXXXXXoO                ",
"                 oooooOOOOXXXOO                                  oooooOOOOXXXOO                                  oooooOOOOXXXO                                    ooooOOOOOXXOO                                  oooooOOOOXXXOO                 ",
"                   ooooOoooOoo                                     ooooOoooOoo                                     ooooOooOOOo                                     ooooOooOOoo                                     ooooOoooOoo                  ",
"                    oOOOOOOOO                                       oOOOOOOOO                                       oOOOOooOo                                       oOOOOOoOo                                       oOOOOOOOO                   ",
"                   ooOOOOOOOO                                      ooOOOOOOOO                                      ooOOOOOOOOO                                     ooOOOOOOOO                                      ooOOOOOOOO                   ",
"                   oOOOOOOOOOO                                     oOOOOOOOOOO                                     oOOOOOOOOOO                                     oOOOOOOOOO                                      oOOOOOOOOO                   ",
"                  oooOOOOOOOOO                                    oooOOOOOOOOO                                    oooOOOOOOOOO                                    oooOOOOOOOO                                     oooOOOOOOOOO                  ",
"                  oooooOOOOOOOO                                   oooooOOOOOOOO                                  ooooooOOOOOOO                                   oooooOOOOOOOO                                   ooooooOOOOOOO                  ",
"                 ooooooooooOOOO                                  oooooooooOOOOO                                  oooooooOOOOOOO                                  ooooooOOOOOOO                                   oooooooOOOOOOO                 ",
"                 oooOOOOOOOOOOO                                  ooooOOOOOOOOOO                                  oooOOOooOOOOOO                                  oooOooOOOOOOOo                                  oooOOOooOOOOOO                 ",
"                 ooOOOOOOOOOOOO                                  ooOOOOOOOOOOOO                                 oooOOOOOOOOOOOO                                 oooOOOoooOOOOOo                                 oooOOOOOOOOOoOO                 ",
"                 ooOOOOOOOOOOOOo                                oooOOOOOOOOOOooo                                ooooOOOOOOOOOoo                                oooooOOOOOOOOoOo                                 ooooOOOOOOOOOooo                ",
"                ooooOOOOOOOOOOoo                                ooooOOOOOOOOOOoo                               oooooOOOOOOOOOOoo                              ooooooOOOOOOOOOoo                                oooooOOOOOOOOOOoo                ",
"                oooooOOOOOOOOOoo                                oooooOOOOOOOOOoo                              ooooooOOOOOOOOOOoo                             oooooooOOOOOOOOOOo                                oooooOOOOOOOOOOoo                ",
"                ooooooooOOOOooo                                oooooooooOOOOooo                               oooooooooOOOOOooo                               oooooooooOOOOOooo                               oooooooooOOOOOooo                 ",
"               ooooooooooooooo                                 ooooooooooooooo                                oo  oooooooooooo                                  oooooooooooooo                                oooooooooooooooo                  ",
"               ooo +++    +++                                  oo  +++    +++                                      +++    +++                                      +++    +++                                  oo  +++    +++                   ",
"                   ++     ++                                       ++     ++                                       ++     ++                                       ++     ++                                       ++     ++                    ",
"                                                                                                                                                                                                                                                ",
"                                                                                                                                                                                                                                                ",
"                                                                                                                                                                                                                                                ",
"                                                                                                                                                                                                                                                ",
"                                                                                                                                                                                                                                                ",
"                                                                                                                                                                                                                                                ",
"                                                                                                                                                                                                                                                ",
"                                                                                                                                                                                                                                                "
};
