/* XPM */
static char *_7cd2224a5c44440c8557cc53c03ae66xYQVkrA22QxWEZaF[] = {
/* columns rows colors chars-per-pixel */
"32 32 2 1 ",
"  c black",
". c #4930BA",
/* pixels */
"                                ",
"                                ",
"                                ",
"                                ",
"                                ",
"                                ",
"                                ",
"                                ",
"                                ",
"                                ",
"   .....  .     .  .  .......   ",
"   .      .     .        .      ",
"   .       .   .         .      ",
"   .        . .    .     .      ",
"   ...       .     .     .      ",
"   .        . .    .     .      ",
"   .       .   .   .     .      ",
"   .      .     .  .     .      ",
"   .      .     .  .     .      ",
"   .....  .     .  .     .      ",
"                                ",
"                                ",
"   ..........................   ",
"                                ",
"                                ",
"                                ",
"                                ",
"                                ",
"                                ",
"                                ",
"                                ",
"                                "
};
