/* XPM */
static char *ff7e55e575b54ab0dbddff4370127e24a0fQXN15J4m2PIHo[] = {
/* columns rows colors chars-per-pixel */
"32 32 2 1 ",
"  c black",
". c #F3EDED",
/* pixels */
"                                ",
"                                ",
"                                ",
"       ..................       ",
"      .                  .      ",
"      .                  .      ",
"     .                    .     ",
"     .                    .     ",
"     .                    .     ",
"    .                      .    ",
"    .                      .    ",
"    .     ............     .    ",
"    .                      .    ",
"    .                      .    ",
"    .                      .    ",
"    .     ............     .    ",
"    .                      .    ",
"    .                      .    ",
"    .                      .    ",
"    .                      .    ",
"    .                      .    ",
"    .                      .    ",
"    .                      .    ",
"    .                      .    ",
"    .                      .    ",
"    .                      .    ",
"    .                      .    ",
"    .                      .    ",
"  ............................. ",
"...                           ..",
".                              .",
"................................"
};
