/* XPM */
static char *_5d78915acac4f62d701634d21c2961fRUXckukvNkNy0qx5[] = {
/* columns rows colors chars-per-pixel */
"32 32 5 1 ",
"  c #000100",
". c #131313",
"X c #571C27",
"o c #881E2B",
"O c #B4B5B4",
/* pixels */
"                                ",
"                                ",
"                                ",
"                                ",
"                                ",
"                                ",
"               Xoooo            ",
"             XXoooooo           ",
"            XXooo   o           ",
"           XXoo      o          ",
"           XXoo  ....o          ",
"          XXXoo .....o          ",
"          XXXoo......o          ",
"         XXXXoo......o          ",
"          XXXoo......o          ",
"           XXXXoo..oo           ",
"             XXoXXoX            ",
"             Xooooo             ",
"             ooooooo            ",
"            XXXoooooo           ",
"           XXXXXXXooo           ",
"           XXoooooooo           ",
"           XXoooooooo           ",
"           XXXooooooX           ",
"           XXXXXoooXX           ",
"          XX OO  OO             ",
"             O   OO             ",
"                                ",
"                                ",
"                                ",
"                                ",
"                                "
};
