/* XPM */
static char *eeb135199112465af5925c3331e2e732fmTdz9eZHE6Lh2cU[] = {
/* columns rows colors chars-per-pixel */
"32 32 4 1 ",
"  c black",
". c #B7EDEA",
"X c #C2D5D5",
"o c #F3EDED",
/* pixels */
"                                ",
"                                ",
"                                ",
"                                ",
"                                ",
"                                ",
"                                ",
"                                ",
"                                ",
"                                ",
"               X                ",
"              X.X               ",
"               .X               ",
"               ..X              ",
"               ...              ",
"              X...X             ",
"              .Xo..             ",
"             X.ooo.X            ",
"              X.o..             ",
"               ...X             ",
"                X               ",
"                                ",
"                                ",
"                                ",
"                                ",
"                                ",
"                                ",
"                                ",
"                                ",
"                                ",
"                                ",
"                                "
};
